<svg width="283" height="136" viewBox="0 0 283 136" fill="none" xmlns="http://www.w3.org/2000/svg">
<path d="M25.0552 135.757H257.878C271.358 135.757 282.386 124.729 282.386 111.249C282.386 97.7701 271.358 86.7416 257.878 86.7416C255.7 86.7416 253.521 87.0139 251.479 87.6947C248.892 66.4546 230.784 49.98 208.863 49.98C208.046 49.98 207.229 49.98 206.276 50.1162C198.379 21.7962 172.374 0.9646 141.467 0.9646C110.288 0.9646 84.146 22.0685 76.3852 50.7969C73.6622 50.2523 70.8029 49.98 67.9437 49.98C46.2952 49.98 28.459 65.91 25.4636 86.7416C25.3275 86.7416 25.1913 86.7416 25.0552 86.7416C11.576 86.7416 0.547485 97.7701 0.547485 111.249C0.547485 124.729 11.576 135.757 25.0552 135.757Z" fill="white"/>
<path d="M258.15 111.93C250.526 116.014 242.22 117.784 233.37 117.512H232.417C220.844 117.512 209.952 114.517 199.876 108.662C195.519 105.258 191.162 101.99 186.806 98.5865C185.716 97.4973 184.763 96.4081 183.81 95.3188C172.373 105.122 156.579 111.113 141.602 111.113C129.893 111.113 119.137 107.981 109.879 102.535C102.254 112.066 90.2724 118.465 78.0185 118.465C66.8539 118.465 57.0508 113.836 49.9708 106.483C42.4823 114.517 31.8623 119.418 20.97 119.418C15.9323 119.418 11.167 118.465 6.81003 116.831C9.2608 124.592 16.4769 130.31 25.0546 130.31H257.878C268.362 130.31 276.939 121.733 276.939 111.249C276.939 108.117 276.123 105.122 274.761 102.535C269.859 106.756 264.413 110.023 258.15 111.93Z" fill="#EAF5FD"/>
</svg>
