<svg width="304" height="168" viewBox="0 0 304 168" fill="none" xmlns="http://www.w3.org/2000/svg">
<path d="M23.0554 122.133C23.5602 122.133 24.0652 122.133 24.57 122.133C18.6798 110.689 15.4821 97.8985 15.4821 84.2666C15.4821 38.3224 52.8434 0.961182 98.7876 0.961182C139.01 0.961182 172.669 29.5711 180.41 67.4373C187.647 63.5665 196.061 61.547 204.813 61.547C232.918 61.547 255.974 83.4252 257.657 111.194C262.201 108.501 267.418 106.986 272.972 106.986C289.633 106.986 303.265 120.618 303.265 137.279C303.265 153.94 289.633 167.572 272.972 167.572H23.0554C10.4333 167.572 0.335683 157.474 0.335683 144.852C0.335683 132.23 10.4333 122.133 23.0554 122.133Z" fill="white"/>
<path d="M23.0567 128.865C23.3933 128.865 23.5616 128.865 23.8982 128.865L36.0154 129.706L30.63 119.103C25.0763 108.164 22.2153 96.5521 22.2153 84.2667C22.2153 66.9324 28.1055 50.7762 37.8666 37.9858L35.6788 53.8055C35.3422 64.5763 37.53 74.8422 42.4105 84.2667C42.5788 84.7715 42.7471 85.2764 42.9154 85.7813C46.113 95.2057 51.4984 103.284 58.9033 110.184C61.596 113.045 64.6253 115.738 67.6546 118.094C75.7327 124.489 84.9889 129.033 95.0865 131.894C102.155 132.904 109.223 133.745 116.292 134.755C126.053 135.091 135.14 133.408 143.555 129.538C154.663 135.091 167.116 138.121 179.065 138.121C190.677 138.121 201.448 135.596 211.041 131.221C222.99 137.784 236.453 141.487 249.749 141.487C266.41 141.487 281.556 136.269 294.01 127.686C295.525 130.716 296.198 134.082 296.198 137.616C296.198 150.574 285.595 161.177 272.637 161.177H22.7201C13.9688 161.177 6.73221 153.94 6.73221 145.189C6.73221 136.438 14.3055 128.865 23.0567 128.865Z" fill="#EAF5FD"/>
</svg>
