<svg width="307" height="185" viewBox="0 0 307 185" fill="none" xmlns="http://www.w3.org/2000/svg">
<path d="M51.6731 184.148H102.584H184.041H255.317C283.374 184.148 306.227 161.295 306.227 133.237C306.227 105.18 283.374 82.3265 255.317 82.3265C251.696 82.3265 248.076 82.7791 244.682 83.4579C240.156 37.0724 201.012 0.869141 153.495 0.869141C105.978 0.869141 66.8333 37.0724 62.3079 83.4579C58.9138 82.7791 55.2935 82.3265 51.6731 82.3265C23.6156 82.3265 0.762268 105.18 0.762268 133.237C0.762268 161.295 23.6156 184.148 51.6731 184.148Z" fill="white"/>
<path d="M275.228 140.929C256.448 140.929 239.025 136.177 224.091 127.579C204.632 147.038 175.895 158.804 148.517 158.804C120.459 158.804 95.7955 147.943 77.2413 130.52C69.7744 132.104 62.3075 133.009 55.0668 133.009C39.0016 133.009 24.2941 129.389 10.9441 123.28C10.2653 126.221 9.81274 129.389 9.81274 132.783C9.81274 155.862 28.5932 174.643 51.6728 174.643H255.316C276.586 174.643 294.008 158.804 296.724 138.213C289.709 140.25 282.469 140.929 275.228 140.929Z" fill="#EAF5FD"/>
</svg>
