<svg width="270" height="120" viewBox="0 0 270 120" fill="none" xmlns="http://www.w3.org/2000/svg">
<path d="M38.1996 119.361H239.569C255.977 119.361 269.401 105.936 269.401 89.5283C269.401 73.1204 255.977 59.6958 239.569 59.6958C236.254 59.6958 233.105 60.193 230.122 61.1874C224.487 42.9564 207.416 29.8633 187.362 29.8633C177.584 29.8633 168.468 33.0123 161.01 38.4816C152.558 15.9415 130.846 0.0307617 105.323 0.0307617C77.1476 0.0307617 53.4473 19.5876 47.3151 45.9397C44.3318 45.2768 41.3486 44.7795 38.1996 44.7795C17.6483 44.7795 0.908936 61.5189 0.908936 82.0702C0.908936 102.621 17.6483 119.361 38.1996 119.361Z" fill="white"/>
<path d="M246.198 98.3122C222.995 98.3122 203.107 88.368 189.185 72.7888C175.098 85.219 155.541 92.8429 136.813 92.8429C116.924 92.8429 99.522 85.5505 86.0974 73.6175C74.3301 80.2469 60.574 84.0589 47.3151 84.0589C33.0618 84.0589 19.9686 80.2469 8.69857 73.6175C8.03563 76.2693 7.53842 79.0868 7.53842 82.0701C7.53842 98.9751 21.2945 112.731 38.1996 112.731H239.569C249.845 112.731 258.629 105.936 261.612 96.6548C256.474 97.6492 251.336 98.3122 246.198 98.3122Z" fill="#EAF5FD"/>
</svg>
