<svg width="285" height="251" viewBox="0 0 285 251" fill="none" xmlns="http://www.w3.org/2000/svg">
<path d="M264.653 107.819C258.397 136.541 242.792 158.249 225.11 171.954C207.301 185.757 187.833 191.137 173.892 188.101C158.626 184.776 143.294 171.225 133.241 151.069C123.244 131.026 118.736 104.917 124.741 77.345C133.188 38.5621 171.957 11.8819 210.448 20.2657C248.939 28.6496 273.1 69.0363 264.653 107.819Z" fill="#8F4AFF" stroke="#000072" stroke-width="7.29892"/>
<path d="M240.117 95.6575C239.221 120.496 232.564 132.938 214.853 147.628" stroke="white" stroke-width="16.2506" stroke-linecap="round"/>
<path d="M227.656 54.8455C227.656 54.8455 233.062 62.1682 233.814 66.9248" stroke="white" stroke-width="16.2506" stroke-linecap="round"/>
<path d="M125.135 73.2883L150.476 66.7061L131.717 118.87L109.008 112.452L102.097 109.819C103.688 107.954 107.297 104.06 109.008 103.402C110.72 102.744 108.295 100.385 106.869 99.2879L98.1479 95.3386C99.0804 94.1867 101.176 91.8171 102.097 91.5538C103.019 91.2906 111.916 89.7986 116.249 89.0855L106.869 73.2883L109.008 69.339L125.135 73.2883Z" fill="#8F4AFF"/>
<path d="M142.104 68.1548C136.101 70.6758 122.164 74.6445 114.439 70.3507C104.783 64.9834 103.478 75.9617 110.003 80.841C116.527 85.7203 118.876 88.6478 114.439 90.1116C110.003 91.5754 98.2583 89.1358 97.7363 94.503C97.2143 99.8702 113.656 98.8943 111.829 102.31C110.003 105.725 97.4753 106.213 102.434 110.605C107.393 114.996 127.488 109.873 132.708 121.827" stroke="#000072" stroke-width="7.3" stroke-linecap="round"/>
<path d="M173.443 189.612C178.156 196.775 181.474 213.024 157.043 220.715C126.505 230.329 104.45 201.205 81.8294 205.729C62.5698 209.581 46.2018 233.157 50.7259 247.012" stroke="#000072" stroke-width="7.3" stroke-linecap="round"/>
<path d="M92.7949 76.5232C59.4964 72.1599 8.61536 62.3321 5.88708 44.3367C1.75212 17.063 24.8494 20.1262 30.0265 24.6154C35.2037 29.1045 36.7826 43.6575 19.8259 42.5573" stroke="#000072" stroke-width="6" stroke-linecap="round"/>
<path d="M79.8606 108.017C52.1242 111.428 15.8629 115.14 9.92137 101.208C0.916388 80.094 22.6866 76.1595 30.153 80.254C36.9109 83.96 43.4 95.6687 27.2627 99.0406" stroke="#000072" stroke-width="6" stroke-linecap="round"/>
</svg>
