<svg width="63" height="62" viewBox="0 0 63 62" fill="none" xmlns="http://www.w3.org/2000/svg">
<path d="M13.525 29.4671C13.5251 29.1236 13.593 28.7834 13.7249 28.4662C13.8567 28.149 14.05 27.861 14.2935 27.6187C14.537 27.3764 14.8259 27.1846 15.1437 27.0542C15.4616 26.9239 15.802 26.8576 16.1455 26.8592L20.4901 26.8734C21.1828 26.8734 21.8472 27.1486 22.337 27.6384C22.8268 28.1283 23.102 28.7926 23.102 29.4853V45.9143C23.5913 45.7693 24.2176 45.6147 24.9067 45.4524C25.3841 45.3401 25.8096 45.0698 26.1141 44.6853C26.4187 44.3009 26.5845 43.8248 26.5846 43.3344V22.9568C26.5846 22.2641 26.8597 21.5997 27.3495 21.1098C27.8393 20.6198 28.5037 20.3445 29.1965 20.3444H33.5542C34.247 20.3445 34.9113 20.6198 35.4011 21.1098C35.8909 21.5997 36.1661 22.2641 36.1661 22.9568V41.8705C36.1661 41.8705 37.2563 41.4293 38.3176 40.9811C38.712 40.8143 39.0485 40.535 39.2852 40.1782C39.5219 39.8214 39.6483 39.4028 39.6486 38.9746V16.4268C39.6486 15.7342 39.9238 15.0699 40.4135 14.5801C40.9032 14.0903 41.5674 13.815 42.2601 13.8149H46.6132C47.3055 13.8156 47.9692 14.0911 48.4585 14.5808C48.9478 15.0706 49.2226 15.7345 49.2226 16.4268V34.9941C52.9967 32.259 56.8215 28.9691 59.8568 25.0135C60.2972 24.4393 60.5886 23.7651 60.705 23.0509C60.8215 22.3367 60.7593 21.6048 60.5241 20.9204C59.1191 16.8782 56.8857 13.1737 53.9668 10.0441C51.0479 6.91452 47.5078 4.42873 43.5731 2.7458C39.6384 1.06287 35.3957 0.219862 31.1165 0.270727C26.8373 0.321591 22.6158 1.26521 18.7222 3.04119C14.8286 4.81717 11.3486 7.3864 8.50497 10.5845C5.6613 13.7826 3.51656 17.5391 2.20799 21.6136C0.899428 25.6882 0.455856 29.991 0.905661 34.2468C1.35547 38.5026 2.68874 42.6177 4.82017 46.3286C5.19151 46.9688 5.73785 47.4897 6.39498 47.8301C7.05211 48.1705 7.79275 48.3163 8.52988 48.2504C9.35336 48.1779 10.3787 48.0755 11.5976 47.9325C12.1282 47.8721 12.618 47.6187 12.9738 47.2206C13.3296 46.8224 13.5265 46.3073 13.527 45.7734V29.4671" fill="white"/>
<path d="M13.4321 55.8149C18.0207 59.153 23.4433 61.1567 29.0999 61.6043C34.7566 62.0518 40.4268 60.9258 45.4832 58.3508C50.5396 55.7758 54.7851 51.8522 57.75 47.0141C60.7149 42.176 62.2836 36.612 62.2826 30.9376C62.2826 30.2277 62.2496 29.529 62.2024 28.8323C50.9643 45.5934 30.2141 53.4291 13.4321 55.8149" fill="#F0B90B"/>
</svg>
