<svg width="2257" height="243" viewBox="0 0 2257 243" fill="none" xmlns="http://www.w3.org/2000/svg" preserveAspectRatio="none">
<path d="M2199 124.7C2189.7 124.7 2180.7 126.8 2172.7 131.1C2160.8 104.8 2134 86.5 2103.4 86.5C2085.6 86.5 2069 92.9 2055.8 103.1C2040.5 70.8 2007.4 48.3 1969.5 48.3C1955 48.3 1941 51.7 1928.7 57.6C1907.9 28.7 1873.9 10 1835.6 10C1772.3 10 1720.9 61.4 1720.9 124.7C1720.9 126 1720.9 126.8 1720.9 128.1C1715 126 1708.6 124.7 1701.8 124.7C1676.7 124.7 1655.5 140.9 1647.8 162.9C1631.5 151.2 1608.5 151.2 1594.1 170.6C1589.3 138.8 1555.6 114.1 1514.8 114.1C1513.3 114.1 1511.7 114.1 1510 114.3C1495.3 71.9 1446.9 40.7 1389.4 40.7C1331.4 40.7 1282.7 72.3 1268.3 115.3C1263.2 114.5 1257.9 114.1 1252.6 114.1C1212.5 114.1 1179.4 137.7 1173.6 168.7C1169.8 150.7 1150.8 136.9 1128.2 136.9C1128 136.9 1127.7 136.9 1127.4 136.9C1127.9 133.7 1128.2 130.5 1128.2 127.3C1128.2 79.4 1081.9 40.7 1024.5 40.7C979.4 40.7 940.8 64.9 926.7 98.6C924.7 98.4 922.9 98.4 920.8 98.4C901.3 98.4 883.7 105 871.1 115.9C860.3 83.6 824.8 59.9 782.5 59.9C739 59.9 702.6 85.1 692.9 119.1C688.3 118 683.7 117.6 678.8 117.6C669.9 117.6 661.5 119.3 654 122.3C649.1 82.7 605.1 51.7 551.4 51.7C506.4 51.7 468.2 73.6 454.1 103.9C452.2 103.6 450.3 103.6 448.4 103.6C432 103.6 417.5 107.9 405.7 114.8C392 92.9 362.6 77.6 328.3 77.6C321.1 77.6 314.2 78.5 307.3 79.6C292.9 34 238.4 0 173.5 0C97.6001 0 36.2001 46.4 36.2001 103.8C36.2001 113 38.1001 122.2 41.2001 130.9C18.6001 135.2 6.00009 150.9 1.90009 168.6C-8.19991 212 24.8001 242.6 53.4001 242.6H1606C1615 242.6 2199 242.6 2199 242.6C2230.9 242.6 2256.4 214 2256.4 182.1C2256.4 150.2 2230.9 124.7 2199 124.7Z" fill="white"/>
</svg>
