<svg xmlns="http://www.w3.org/2000/svg" xmlns:xlink="http://www.w3.org/1999/xlink" viewBox="0 0 261.3 195.72"><defs><style>.cls-1,.cls-8{stroke:#000072;}.cls-1{stroke-width:7.3px;fill:url(#linear-gradient);}.cls-2{fill:url(#linear-gradient-2);}.cls-3,.cls-9{fill:#fff;}.cls-3{opacity:0.4;isolation:isolate;}.cls-4{fill:#f28500;}.cls-5{fill:#d96d00;}.cls-6{fill:url(#linear-gradient-3);}.cls-7{fill:#fdda6b;}.cls-8{fill:#f23d3d;stroke-width:7.3px;}</style><linearGradient id="linear-gradient" x1="189.32" y1="99.4" x2="74.98" y2="-39.25" gradientTransform="matrix(1, 0, 0, -1, 0, 128.09)" gradientUnits="userSpaceOnUse"><stop offset="0" stop-color="#f28500"/><stop offset="1" stop-color="#fba905"/></linearGradient><linearGradient id="linear-gradient-2" x1="171.92" y1="92.4" x2="18.66" y2="-77.66" gradientTransform="matrix(1, 0, 0, -1, 0, 128.09)" gradientUnits="userSpaceOnUse"><stop offset="0" stop-color="#fbcf0a"/><stop offset="1" stop-color="#fba505"/></linearGradient><linearGradient id="linear-gradient-3" x1="213.94" y1="78.59" x2="99.58" y2="-60.09" xlink:href="#linear-gradient"/></defs><g id="Layer_2" data-name="Layer 2"><g id="OBJECTS"><path class="cls-1" d="M38.74,91c-3.5,25.1,4,47.63,19.07,63.13l-.05.05c2.82,2.93,5.66,5.81,8.51,8.7h0c2.55,2.59,5.11,5.18,7.67,7.83h0C87.39,184.46,106.69,192.65,129,192c46.92-1.08,90.3-40.21,96.78-87.31,3.63-25-4-47.64-19-63.2-2.81-2.92-5.66-5.8-8.5-8.69h0c-2.54-2.57-5.07-5.14-7.62-7.77h0C177.2,11.27,158,3.17,135.77,3.67h0C88.6,4.77,45.32,43.77,38.74,91Z"/><path class="cls-2" d="M205.42,87.53c-6.34,45.5-48.16,83.14-93.5,84.19s-76.74-34.84-70.4-80.34S89.68,8.24,135,7.18C180.12,6.15,211.65,42.16,205.42,87.53Z"/><path class="cls-3" d="M205.42,87.53c2.36-16.49-.42-31.75-6.95-44.41L40.9,97.69C39.24,123.62,50.12,146,68.59,159.2L197,114.7A95,95,0,0,0,205.42,87.53Z"/><path class="cls-4" d="M61.88,90.88c-4.73,34.09,18.88,61.07,53,60.3S180.33,122.12,185.06,88s-18.88-61.07-53-60.3S66.61,56.78,61.88,90.88Z"/><path class="cls-5" d="M68,95.94c4.73-34.09,36.09-62.38,70.19-63.15,12.37-.27,23.35,3.1,32.24,9.29-9.57-9.25-22.76-14.67-38.38-14.36C98,28.49,66.61,56.78,61.88,90.88c-3,21.67,5.42,40.41,20.76,51C71.27,130.92,65.5,114.57,68,95.94Z"/><path class="cls-6" d="M128.1,188.25c45.1-1,87-38.81,93.25-84.17,3.49-24-3.79-45.45-18-60.15C198,38.41,192.58,33,187.13,27.4c14.25,14.7,21.64,36,18.29,60.13-6.34,45.5-48.15,83.14-93.5,84.19-21.24.46-39.53-7.11-52.36-20.2,5.31,5.52,10.73,10.9,16.18,16.53C88.43,181,106.74,188.84,128.1,188.25Z"/><path class="cls-7" d="M120.56,75.33l-17.81,16,11.18,17.87-10.46,9.34-17.7-28L114.14,65Z"/><path class="cls-7" d="M121.28,102.54,114.59,92l10.57-9.48,1.19,1.89.6.95,4.9,7.68Z"/><path class="cls-7" d="M118.53,116.43l6.42,10.3-10.46,9.35-6.42-10.3Z"/><path class="cls-7" d="M132.64,76l11,17.75-17.91,16.17,6.66,10.27,28.26-25.38L143.1,66.62Z"/><rect class="cls-8" x="6.79" y="63.28" width="247.73" height="69.16" rx="7.35" transform="translate(-18.29 31.06) rotate(-12.68)"/><path class="cls-9" d="M43.32,135.58a18.13,18.13,0,0,1-7.15.31,10.79,10.79,0,0,1-5.32-2.59,10.06,10.06,0,0,1-2.79-5.1l-.2-.9a.48.48,0,0,1,.06-.41.6.6,0,0,1,.38-.29l6.59-1.48a.45.45,0,0,1,.42.1.48.48,0,0,1,.28.34l.13.57a3.5,3.5,0,0,0,2.18,2.4,7.24,7.24,0,0,0,4.48.18,4.59,4.59,0,0,0,2.88-1.59,2.79,2.79,0,0,0,.52-2.31,2,2,0,0,0-1-1.38,4.22,4.22,0,0,0-1.79-.64c-.73-.14-1.84-.29-3.34-.45a2.18,2.18,0,0,0-.61-.06l-.57-.07a39.1,39.1,0,0,1-5.84-.93,12.24,12.24,0,0,1-4.61-2.35,8.27,8.27,0,0,1-2.76-4.76,9,9,0,0,1,.36-5.46,10.14,10.14,0,0,1,3.55-4.38,15.9,15.9,0,0,1,5.94-2.59A15.92,15.92,0,0,1,42,101.6a11.09,11.09,0,0,1,5.44,2.71,9.81,9.81,0,0,1,2.91,5.17l.15.67a.63.63,0,0,1-.1.47.56.56,0,0,1-.35.23l-6.59,1.48a.74.74,0,0,1-.46,0,.68.68,0,0,1-.23-.39l-.08-.34a3.91,3.91,0,0,0-2.13-2.6,5.88,5.88,0,0,0-4.22-.4A5,5,0,0,0,33.63,110a2.73,2.73,0,0,0,.49,4,6.8,6.8,0,0,0,2.33.82c1,.17,2.58.35,4.65.55q3.59.39,5.62.83a10.34,10.34,0,0,1,4.09,2,7.57,7.57,0,0,1,2.79,4.65,9.26,9.26,0,0,1-.37,5.67,10.44,10.44,0,0,1-3.63,4.45A17.25,17.25,0,0,1,43.32,135.58Zm28.75-6.32a15,15,0,0,1-7.12,0,11.66,11.66,0,0,1-5.49-3.35,13.22,13.22,0,0,1-3.07-6.14l-2.13-9.48a12.68,12.68,0,0,1,.18-6.72A11.26,11.26,0,0,1,58,98.26a15.87,15.87,0,0,1,13.57-3.05,11.17,11.17,0,0,1,5.52,3.29,12.61,12.61,0,0,1,3,6L82.23,114a13,13,0,0,1-.15,6.86,11.44,11.44,0,0,1-3.57,5.39A15,15,0,0,1,72.07,129.26Zm-1.51-6.73a4.93,4.93,0,0,0,3.32-2.3,5.57,5.57,0,0,0,.54-4.25l-2.21-9.82a5.48,5.48,0,0,0-2.3-3.56,4.78,4.78,0,0,0-4-.7,4.86,4.86,0,0,0-3.31,2.34,5.54,5.54,0,0,0-.5,4.2l2.21,9.81a5.65,5.65,0,0,0,2.26,3.63A5,5,0,0,0,70.56,122.53Zm19,2.24a.73.73,0,0,1-.46,0,.72.72,0,0,1-.24-.39L81.69,92.27a.53.53,0,0,1,.06-.41.59.59,0,0,1,.38-.28l6.74-1.52a.47.47,0,0,1,.42.11.43.43,0,0,1,.27.33l5.77,25.66a.21.21,0,0,0,.29.18l15.13-3.4a.45.45,0,0,1,.42.1.48.48,0,0,1,.28.34L112.7,119a.57.57,0,0,1-.09.47.49.49,0,0,1-.35.23Zm27.18-6.11a.73.73,0,0,1-.46,0,.79.79,0,0,1-.24-.4l-7.21-32a.56.56,0,0,1,.06-.41.63.63,0,0,1,.38-.29l12.1-2.72a16.21,16.21,0,0,1,6.83-.19,10.41,10.41,0,0,1,5.23,2.66,9.92,9.92,0,0,1,2.79,5.1l2.79,12.43a9.9,9.9,0,0,1-.33,5.8,10.37,10.37,0,0,1-3.59,4.64,16.31,16.31,0,0,1-6.26,2.76Zm5.73-8.62a.22.22,0,0,0,.29.19l4.89-1.1a4.06,4.06,0,0,0,2.78-2,5.7,5.7,0,0,0,.41-3.93l-2.19-9.77a5.22,5.22,0,0,0-2-3.33,4,4,0,0,0-3.44-.67l-4.83,1.09a.22.22,0,0,0-.19.29Zm45-2.25a14.89,14.89,0,0,1-7.12,0,11.49,11.49,0,0,1-5.49-3.35,13.09,13.09,0,0,1-3.07-6.13l-2.14-9.49a12.54,12.54,0,0,1,.19-6.71,11.22,11.22,0,0,1,3.53-5.33,14.69,14.69,0,0,1,6.43-3.09,14.54,14.54,0,0,1,7.13,0A11.23,11.23,0,0,1,172.5,77a12.7,12.7,0,0,1,3,6l2.13,9.49a13.17,13.17,0,0,1-.15,6.85,11.54,11.54,0,0,1-3.57,5.39A14.89,14.89,0,0,1,167.51,107.79ZM166,101.06a4.88,4.88,0,0,0,3.32-2.29,5.55,5.55,0,0,0,.54-4.26l-2.21-9.81a5.48,5.48,0,0,0-2.29-3.57,4.81,4.81,0,0,0-4-.7A5,5,0,0,0,158,82.77a5.65,5.65,0,0,0-.5,4.2l2.21,9.81a5.64,5.64,0,0,0,2.26,3.63A5,5,0,0,0,166,101.06Zm31,0a15.32,15.32,0,0,1-7,.07A11.35,11.35,0,0,1,184.68,98a12.08,12.08,0,0,1-2.94-5.76l-4.8-21.34a.48.48,0,0,1,.06-.41.58.58,0,0,1,.38-.29l6.73-1.51a.45.45,0,0,1,.42.1.48.48,0,0,1,.28.34l4.8,21.34a5.17,5.17,0,0,0,2.09,3.31,4.83,4.83,0,0,0,3.81.54,4.64,4.64,0,0,0,3.11-2.09,5.13,5.13,0,0,0,.52-3.91l-4.8-21.33a.48.48,0,0,1,.06-.41.6.6,0,0,1,.38-.29l6.73-1.51a.45.45,0,0,1,.43.1.47.47,0,0,1,.27.34L207,86.5a12.06,12.06,0,0,1-.19,6.47,10.81,10.81,0,0,1-3.53,5.13A14.92,14.92,0,0,1,197,101ZM230.54,58.2a.46.46,0,0,1,.42.1.45.45,0,0,1,.27.34l1.27,5.64a.57.57,0,0,1-.09.47.52.52,0,0,1-.35.23l-8.3,1.86a.22.22,0,0,0-.18.29l5.76,25.61a.67.67,0,0,1-.09.47.55.55,0,0,1-.35.23L222.16,95a.7.7,0,0,1-.45,0,.67.67,0,0,1-.24-.4l-5.76-25.6a.22.22,0,0,0-.29-.19l-8,1.8a.7.7,0,0,1-.45,0,.67.67,0,0,1-.24-.4l-1.27-5.64a.48.48,0,0,1,.06-.41.58.58,0,0,1,.38-.29Z"/></g></g></svg>