<svg width="59" height="58" viewBox="0 0 59 58" fill="none" xmlns="http://www.w3.org/2000/svg">
<path fill-rule="evenodd" clip-rule="evenodd" d="M29.2977 0.77832C13.3015 0.77832 0.336792 13.7431 0.336792 29.7392C0.336792 42.5326 8.63249 53.3893 20.1425 57.2221C21.5914 57.4835 22.1141 56.5921 22.1141 55.8255C22.1141 55.1373 22.0908 53.3138 22.0821 50.9009C14.0245 52.6489 12.323 47.0159 12.323 47.0159C11.0106 43.6709 9.10868 42.7794 9.10868 42.7794C6.48089 40.9821 9.30903 41.0227 9.30903 41.0227C12.2185 41.226 13.7429 44.0077 13.7429 44.0077C16.3271 48.4328 20.5258 47.1552 22.1692 46.4148C22.4335 44.542 23.1884 43.2644 24.0131 42.5413C17.5844 41.8125 10.8247 39.327 10.8247 28.2264C10.8247 25.0702 11.9542 22.4801 13.7981 20.4592C13.5048 19.7246 12.503 16.7774 14.0855 12.7936C14.0855 12.7936 16.5159 12.0125 22.0473 15.7582C24.4097 15.1155 26.8465 14.7875 29.2948 14.7826C31.7431 14.7865 34.1801 15.1146 36.5423 15.7582C42.0766 12.0096 44.504 12.7936 44.504 12.7936C46.0865 16.7774 45.0935 19.7246 44.7915 20.4592C46.6498 22.4801 47.7648 25.0673 47.7648 28.2264C47.7648 39.3561 40.9993 41.8009 34.5475 42.5181C35.5782 43.4124 36.5074 45.1779 36.5074 47.8782C36.5074 51.7517 36.4726 54.876 36.4726 55.8255C36.4726 56.6008 36.9894 57.5009 38.4674 57.2163C49.9716 53.3777 58.2586 42.5297 58.2586 29.7392C58.2586 13.7431 45.2938 0.77832 29.2977 0.77832Z" fill="white"/>
</svg>
