<svg width="110" height="217" viewBox="0 0 110 217" fill="none" xmlns="http://www.w3.org/2000/svg">
<g clip-path="url(#clip0)">
<path d="M106.1 57.1797C106.1 28.8797 83.2 5.97974 54.9 5.97974C26.6 5.97974 3.69995 28.9797 3.69995 57.1797C3.69995 80.8797 19.9 100.78 41.7 106.68V199.28C41.7 206.58 47.6 212.48 54.9 212.48C62.2 212.48 68.1 206.58 68.1 199.28V194.08H74.8C80.6 194.08 85.4 189.38 85.4 183.48C85.4 177.58 80.7 172.88 74.8 172.88H68.1V162.38H74.8C80.6 162.38 85.4 157.68 85.4 151.78C85.4 145.88 80.7 141.18 74.8 141.18H68.1V106.48C90 100.88 106.1 80.9797 106.1 57.1797ZM54.9 29.2797C70.3 29.2797 82.9 41.7797 82.9 57.2797C82.9 72.7797 70.4 85.2797 54.9 85.2797C39.5 85.2797 26.9 72.7797 26.9 57.2797C26.9 41.7797 39.5 29.2797 54.9 29.2797Z" fill="#A0DAFB"/>
<path d="M54.9 89.9796C47.6 89.9796 41.7 95.8796 41.7 103.18V197.88C41.7 205.18 47.6 211.08 54.9 211.08C62.2 211.08 68.1 205.18 68.1 197.88V103.18C68.1 95.8796 62.2 89.9796 54.9 89.9796Z" fill="#A0DAFB"/>
<path d="M54.9 4.57959C26.6 4.57959 3.69995 26.9796 3.69995 54.6796C3.69995 82.3796 26.6 104.78 54.9 104.78C83.2 104.78 106.1 82.3796 106.1 54.6796C106.1 26.9796 83.2 4.57959 54.9 4.57959ZM54.9 81.9796C39.5 81.9796 26.9 69.7796 26.9 54.6796C26.9 39.5796 39.4 27.3796 54.9 27.3796C70.4 27.3796 82.9 39.5796 82.9 54.6796C82.9 69.7796 70.3 81.9796 54.9 81.9796Z" fill="#A0DAFB"/>
<path d="M64.5 151.08H76.6C82.4 151.08 84.6 146.38 84.6 140.48H64.5V151.08Z" fill="#A0DAFB"/>
<path d="M64.5 182.68H76.6C82.4 182.68 84.2 177.98 84.2 172.08H64.5V182.68Z" fill="#A0DAFB"/>
<path d="M54.9 4.57959C26.6 4.57959 3.69995 27.4796 3.69995 55.7796C3.69995 55.9796 3.69995 56.2796 3.69995 56.4796C3.69995 56.6796 3.69995 56.9796 3.69995 57.1796C3.69995 80.8796 19.9 100.78 41.7 106.68V199.28C41.7 206.58 47.6 212.48 54.9 212.48C62.2 212.48 68.1 206.58 68.1 199.28V197.88V194.18H74.8C80.6 194.18 85.4 189.48 85.4 183.58C85.4 183.38 85.4 183.08 85.4 182.88V182.18C85.4 176.38 80.7 171.58 74.8 171.58H68.1V162.48H74.8C80.6 162.48 85.4 157.78 85.4 151.88L85.2 148.48C85.2 142.68 80.6 139.88 74.8 139.88H68.1V106.58C90 100.78 106.1 80.8796 106.1 57.1796C106.1 56.9796 106.1 56.6796 106.1 56.4796C106.1 56.2796 106.1 55.9796 106.1 55.7796C106.1 27.4796 83.2 4.57959 54.9 4.57959Z" stroke="#000072" stroke-width="7.3"/>
<path d="M49 16.6797C37.9 17.9797 19.7 26.9797 16.7 46.0797" stroke="white" stroke-width="8" stroke-linecap="round"/>
<path d="M61.3 18.0796C67.1 18.0796 76.8 21.6796 82 27.9796" stroke="white" stroke-width="8" stroke-linecap="round"/>
<path d="M55 82.4796C69.9117 82.4796 82 70.3913 82 55.4796C82 40.5679 69.9117 28.4796 55 28.4796C40.0883 28.4796 28 40.5679 28 55.4796C28 70.3913 40.0883 82.4796 55 82.4796Z" stroke="#000072" stroke-width="7.5" stroke-miterlimit="10"/>
</g>
<defs>
<clipPath id="clip0">
<rect width="109.8" height="215.3" fill="white" transform="translate(0 0.879639)"/>
</clipPath>
</defs>
</svg>
