<svg width="52" height="54" viewBox="0 0 52 54" fill="none" xmlns="http://www.w3.org/2000/svg">
<path d="M51.5853 39.301C51.0392 36.1526 49.3097 33.7084 46.8021 31.8982C45.9819 31.3077 45.8577 30.9085 46.317 29.9671C48.1684 26.1894 47.3856 22.6659 44.2172 19.9918C42.9798 18.9488 41.5948 18.1357 40.2355 17.2838C38.8341 16.4054 37.5194 15.4204 36.4601 14.1088C33.5705 10.532 33.9548 6.40348 37.4678 3.45591C38.0982 2.92835 38.7005 2.37175 38.4872 1.46183C38.2576 0.488985 37.4139 0.278445 36.5843 0.152605C33.9548 -0.244276 31.384 0.147765 28.8975 0.994766C23.2472 2.91867 18.8156 6.7205 14.7472 11.0354C13.0505 12.8359 11.9842 15.0042 11.7733 17.5331C11.7077 18.322 11.3936 18.5688 10.707 18.7891C5.50199 20.4589 2.51867 27.6027 4.97704 32.5347C5.35669 33.297 5.31216 33.6237 4.64191 34.1319C2.29603 35.913 0.936783 38.3427 0.78211 41.3532C0.554787 45.7576 2.77646 48.7027 6.36207 50.6944C9.31258 52.3328 12.5842 52.841 15.837 53.4193C17.2642 53.6734 21.8997 54.051 22.3145 53.9929C22.6918 53.9929 23.0668 53.9929 23.4441 53.9929C23.7652 53.9929 24.0862 53.9929 24.4073 53.9929C25.1853 53.9929 25.9634 53.9929 26.7414 53.9929C26.9899 53.9929 27.2359 53.9929 27.482 53.9929C27.7164 53.9929 27.9484 53.9929 28.1827 53.9929C28.3491 53.9929 34.4142 53.6734 36.1953 53.4242C39.9848 52.8918 43.7485 52.236 46.9638 49.9273C50.5307 47.3693 52.3797 43.8845 51.5853 39.301ZM19.7155 31.0851C19.7296 29.8098 20.6436 28.8297 21.8106 28.8369C23.0105 28.8442 24.0065 29.9041 23.9948 31.1626C23.9831 32.4234 22.973 33.5922 21.8763 33.6092C20.7537 33.6261 19.7015 32.3968 19.7155 31.0851ZM31.5644 41.3605C30.2005 42.326 28.4803 42.8367 26.6079 42.8318C24.8877 42.8826 23.2894 42.4495 21.8575 41.4742C21.1052 40.9612 20.5053 40.2666 21.0701 39.2647C21.6091 38.3064 22.4692 38.2895 23.2941 38.7952C25.5931 40.2037 27.8288 40.1746 30.1091 38.7275C30.8731 38.2411 31.7566 38.091 32.3706 39.0566C32.8768 39.8504 32.5792 40.6417 31.5644 41.3605ZM31.5855 33.5995C30.4185 33.6237 29.4553 32.4863 29.4623 31.0972C29.4693 29.8219 30.3763 28.8248 31.5223 28.8393C32.7362 28.8539 33.6525 29.8557 33.6572 31.1771C33.6642 32.4936 32.7386 33.5753 31.5855 33.5995Z" fill="white"/>
</svg>
