<svg width="55" height="45" viewBox="0 0 55 45" fill="none" xmlns="http://www.w3.org/2000/svg">
<path d="M54.5457 6.18024C52.5363 7.06166 50.3952 7.64589 48.163 7.92957C50.4594 6.55847 52.2121 4.40389 53.0361 1.80692C50.895 3.08346 48.5311 3.98514 46.0118 4.48832C43.9788 2.32361 41.0812 0.98291 37.9203 0.98291C31.7875 0.98291 26.8502 5.96073 26.8502 12.0631C26.8502 12.9412 26.9245 13.7854 27.1069 14.5892C17.8976 14.14 9.74865 9.72618 4.2744 3.00241C3.31868 4.66055 2.75809 6.55847 2.75809 8.60161C2.75809 12.438 4.73368 15.8387 7.6785 17.8075C5.89878 17.7738 4.15282 17.2571 2.67366 16.4432C2.67366 16.477 2.67366 16.5209 2.67366 16.5648C2.67366 21.9478 6.5134 26.4191 11.5486 27.4491C10.647 27.6956 9.66422 27.8138 8.64434 27.8138C7.93516 27.8138 7.21921 27.7733 6.54718 27.6247C7.98244 32.0115 12.0552 35.2367 16.8979 35.3413C13.1291 38.2895 8.34378 40.0659 3.16334 40.0659C2.2549 40.0659 1.38362 40.0254 0.512329 39.9139C5.41923 43.0782 11.2346 44.885 17.5058 44.885C37.8899 44.885 49.0343 27.9996 49.0343 13.3633C49.0343 12.8736 49.0174 12.4008 48.9937 11.9314C51.1922 10.3712 53.0395 8.42262 54.5457 6.18024Z" fill="white"/>
</svg>
